<?xml version="1.0" encoding="UTF-8"?>
<svg id="Layer_2" data-name="Layer 2" xmlns="http://www.w3.org/2000/svg" viewBox="0 0 177.69 180.4">
  <defs>
    <style>
      .cls-1 {
        fill: #f1f2f2;
      }
    </style>
  </defs>
  <g id="Layer_1-2" data-name="Layer 1">
    <g>
      <circle class="cls-1" cx="41.19" cy="21.95" r="21.95"/>
      <circle class="cls-1" cx="90.83" cy="91.51" r="40.98"/>
      <path class="cls-1" d="m144.06,161.69c-50.1,39.1-124.02,13.84-140.8-47.26C-3.16,91.47,0,66.08,11.86,45.32c1.84-3.24,3.87-6.39,6.11-9.38.9,1.51,1.97,2.94,3.18,4.26,2.2,2.42,4.8,4.4,7.66,5.86-13.74,18.31-19.14,42.79-13.41,65.22,13.47,54.69,78.8,77.63,123.98,44.27,46.78-34.39,42.8-105.63-6.76-135.49-18.63-11.34-41.81-14.86-63.03-9.57-1.16.28-2.3.59-3.45.94-.1-.27-.22-.53-.35-.79,22.37-7.16,47.74-5.01,68.28,6.91,53.79,30.48,58.65,106.32,9.98,144.14Z"/>
    </g>
  </g>
</svg>